<svg xmlns="http://www.w3.org/2000/svg" width="359.38" height="237.97" viewBox="0 0 359.38 237.97">
  <defs>
    <style>
      .a {
        fill: #f8f7f7;
      }

      .b {
        fill: #355368;
      }

      .c {
        fill: #14b8ec;
      }

      .d {
        fill: #30677f;
      }

      .e {
        font-size: 16.07px;
        font-family: SukhumvitSet-Bold, Sukhumvit Set;
        font-weight: 700;
      }

      .e, .f, .j, .m {
        fill: #fff;
      }

      .f {
        font-size: 12.05px;
        font-family: SukhumvitSet-Light, Sukhumvit Set;
        font-weight: 300;
      }

      .g {
        letter-spacing: -0.02em;
      }

      .h, .i, .n, .o {
        fill: none;
      }

      .h, .i {
        stroke: #fff;
        stroke-linecap: round;
        stroke-width: 1.73px;
      }

      .h, .m, .o {
        stroke-miterlimit: 10;
      }

      .i {
        stroke-linejoin: round;
      }

      .j {
        opacity: 0.1;
      }

      .k {
        fill: #d6ab8b;
      }

      .l {
        fill: #fbcfaa;
      }

      .m {
        fill-opacity: 0.23;
        stroke-width: 0.92px;
      }

      .m, .n, .o {
        stroke: #282828;
      }

      .n {
        stroke-linejoin: bevel;
      }

      .n, .o {
        stroke-width: 1.14px;
      }

      .p {
        fill: #282828;
      }
    </style>
  </defs>
  <title>Asset 1</title>
  <g>
    <rect class="a" width="359.38" height="237.97"/>
    <g>
      <g>
        <rect class="b" x="196.31" y="34.27" width="87.64" height="183.99" rx="14.19" transform="translate(506.09 179.78) rotate(163.64)"/>
        <rect class="c" x="201.74" y="58.25" width="75.53" height="134.39" transform="translate(504.65 178.35) rotate(163.64)"/>
        <rect class="d" x="205.74" y="49.38" width="24.69" height="3.61" rx="1.7" transform="translate(441.76 38.87) rotate(163.64)"/>
        <rect class="d" x="254.01" y="195.43" width="16.77" height="13.42" rx="4.67" transform="translate(571.11 322.18) rotate(163.64)"/>
        <g>
          <text class="e" transform="matrix(0.96, -0.28, 0.28, 0.96, 215.22, 123.29)">SHELF</text>
          <text class="f" transform="matrix(0.96, -0.28, 0.28, 0.96, 232.91, 129.11)">OF</text>
          <text class="e" transform="matrix(0.96, -0.28, 0.28, 0.96, 228.52, 143.94)"><tspan class="g">Y</tspan><tspan x="9.24" y="0">OU</tspan></text>
          <line class="h" x1="219.4" y1="152.89" x2="271.26" y2="137.67"/>
          <g>
            <polyline class="i" points="223.48 145.91 218.72 150.58 244.96 142.88"/>
            <polyline class="i" points="264.06 134 270.59 135.36 244.34 143.06"/>
          </g>
        </g>
        <path class="j" d="M248.17,28a8.46,8.46,0,0,1,10.46,5.72l38.21,130.15L187.53,45.83Z"/>
        <rect class="k" x="176.4" y="112.52" width="34.11" height="19.14" rx="9" transform="translate(413.46 184.75) rotate(163.64)"/>
        <rect class="k" x="183.09" y="135.31" width="34.11" height="19.14" rx="9" transform="translate(432.99 227.53) rotate(163.64)"/>
        <rect class="k" x="189.78" y="158.11" width="34.11" height="19.14" rx="9" transform="translate(452.52 270.31) rotate(163.64)"/>
        <rect class="k" x="196.47" y="180.9" width="34.11" height="19.14" rx="9" transform="translate(472.05 313.09) rotate(163.64)"/>
        <rect class="l" x="175.94" y="110.96" width="34.11" height="19.14" rx="9" transform="translate(412.12 181.82) rotate(163.64)"/>
        <rect class="l" x="182.63" y="133.75" width="34.11" height="19.14" rx="9" transform="translate(431.65 224.59) rotate(163.64)"/>
        <rect class="l" x="189.32" y="156.54" width="34.11" height="19.14" rx="9" transform="translate(451.18 267.37) rotate(163.64)"/>
        <rect class="l" x="196.01" y="179.33" width="34.11" height="19.14" rx="9" transform="translate(470.71 310.15) rotate(163.64)"/>
        <path class="k" d="M224.85,70.8c2.05-8.07,11.27-6.44,11.27-6.44s57.39,10.88,72.37,15.87,22.7,9.62,31.55,33.17c18.2,50.36-34.37,62.52-39.37,63.55L277.9,99.38l-15.43-5.25L232.12,83.32A12,12,0,0,1,224.85,70.8Z"/>
        <path class="l" d="M223.78,67.15c2.05-8.07,11.27-6.44,11.27-6.44s57.38,10.88,72.37,15.87,22.7,9.62,31.55,33.17c18.2,50.36-34.37,62.51-39.37,63.55L276.83,95.73l-15.44-5.25L231,79.67A12,12,0,0,1,223.78,67.15Z"/>
      </g>
      <g>
        <polygon class="m" points="38.15 89.38 38.61 91.34 75.8 118.48 148.65 82.23 148.98 80.41 108 66.38 38.15 89.38"/>
        <polygon class="m" points="56.98 157.1 57.33 158.75 92.56 196.88 151.07 145.22 151.18 144.2 114.17 122.15 56.98 157.1"/>
        <polygon class="n" points="19.6 20.64 66.77 195.42 117.86 155.52 102.27 14.52 19.6 20.64"/>
        <polyline class="n" points="38.34 89.38 75.74 116.17 75.74 118.56 38.65 91.25"/>
        <polyline class="n" points="75.55 116.15 149.02 80.41 148.65 82.25 75.55 118.54"/>
        <polyline class="n" points="149.2 80.48 108.15 66.38 38.16 89.44"/>
        <polyline class="n" points="66.77 195.42 27.08 144 25.55 137.92 59.24 180.66 15.53 22.46 19.6 20.64"/>
        <polygon class="n" points="71.6 88.07 72.7 92.52 85.71 100.25 85.71 95.35 71.6 88.07"/>
        <polyline class="n" points="71.6 88.07 71.6 86.06 78.36 89.44 78.36 91.56 84.86 88.81"/>
        <polygon class="o" points="83.7 86.74 83.7 88.16 91.67 92.59 108.39 85.54 108.39 83.89 91.67 90.78 83.7 86.74"/>
        <polyline class="o" points="83.57 86.7 100.67 80.65 108.53 83.86"/>
        <polygon class="o" points="79.26 80.07 79.26 84.14 97.31 93.66 97.31 89.44 79.26 80.07"/>
        <polyline class="o" points="79.17 80.02 82.67 78.99 100.52 88.07 100.52 92.39 97.42 93.83"/>
        <line class="n" x1="71.6" y1="86.06" x2="79.26" y2="83.48"/>
        <polyline class="n" points="86.61 80.93 88.06 80.65 93.49 83.19"/>
        <line class="n" x1="78.36" y1="89.44" x2="83.7" y2="87.68"/>
        <line class="o" x1="97.31" y1="89.44" x2="100.52" y2="88.07"/>
        <polyline class="o" points="85.71 95.35 91.67 92.59 91.67 90.78"/>
        <polyline class="n" points="85.71 100.25 101.91 93.07 101.98 88.24"/>
        <line class="n" x1="25.45" y1="138.04" x2="44.92" y2="128.84"/>
        <polygon class="n" points="56.88 156.99 92.55 195.42 92.55 196.95 57.32 158.73 56.88 156.99"/>
        <polyline class="n" points="92.55 195.42 151.24 144.12 151.01 145.3 92.55 196.95"/>
        <polyline class="n" points="151.24 144.12 114.19 122.15 56.91 157.1"/>
        <polygon class="n" points="83.05 147.79 83.77 152.11 95.9 162.88 95.9 159.32 83.05 147.79"/>
        <polygon class="n" points="95.58 153.22 95.58 154.72 102.78 160.76 102.78 159.36 95.58 153.22"/>
        <polyline class="n" points="102.78 159.36 116.56 149.15 116.56 150.15 102.78 160.76"/>
        <polyline class="n" points="116.56 149.15 109.23 143.66 95.58 153.22"/>
        <polygon class="n" points="107.32 155.34 107.32 158.3 110.06 156.05 110.06 153.22 107.32 155.34"/>
        <polyline class="n" points="107.32 155.34 89.97 142.05 89.97 144.91 107.32 158.3"/>
        <polyline class="n" points="110.06 153.22 92.72 140.18 89.94 142.18"/>
        <polyline class="n" points="89.97 143.46 82.96 147.49 83.13 148.29"/>
        <polyline class="n" points="95.34 149.06 89.97 152.8 89.97 154 96.07 149.62"/>
        <line class="n" x1="83.38" y1="147.24" x2="89.97" y2="152.8"/>
        <polyline class="n" points="100 145.66 103.18 143.66 103.18 144.84 100.98 146.39"/>
        <polyline class="n" points="93.7 140.92 96.96 138.84 103.24 143.78"/>
        <line class="n" x1="95.9" y1="159.32" x2="102.33" y2="154.45"/>
        <line class="n" x1="95.9" y1="162.88" x2="104.45" y2="156.09"/>
        <polyline class="n" points="106.91 150.85 109.56 149.15 109.56 152.79"/>
        <line class="n" x1="109.64" y1="149.24" x2="103.18" y2="144.84"/>
      </g>
      <g>
        <path class="p" d="M154.28,36.62c.55.91.2,1.54-.58,2.11a18.54,18.54,0,0,0-7,19.54c.09.32.18.65.24,1a1.09,1.09,0,0,1-.89,1.39,1.14,1.14,0,0,1-1.4-.91,21,21,0,0,1-.86-5,28.46,28.46,0,0,1,.35-5.22l1.2-3.89c.29-.57.57-1.15.88-1.72a19.2,19.2,0,0,1,7.05-7.61Z"/>
        <path class="p" d="M165.22,49.55a4.09,4.09,0,0,1,2.72,5.12,4.16,4.16,0,0,1-5.22,2.74,4.27,4.27,0,0,1-2.67-5.2A4.12,4.12,0,0,1,165.22,49.55Z"/>
        <path class="p" d="M151.52,49.87a12.18,12.18,0,0,0-.19,7.11,7.78,7.78,0,0,1,.22,1.17,1.05,1.05,0,0,1-.84,1.16,1,1,0,0,1-1.25-.51,5.84,5.84,0,0,1-.44-1.21,16,16,0,0,1,6.34-17,2.59,2.59,0,0,1,.55-.33,1.15,1.15,0,0,1,1.41.37,1.08,1.08,0,0,1-.1,1.44,3.66,3.66,0,0,1-.63.54A13.21,13.21,0,0,0,151.52,49.87Z"/>
        <path class="p" d="M154.53,50.63a10.71,10.71,0,0,1,4.52-5.84c.86-.54,1.56-.47,2,.12s.19,1.27-.66,1.85a8.14,8.14,0,0,0-3.74,8.41,13.2,13.2,0,0,0,.43,1.61,1.16,1.16,0,0,1-.69,1.58c-.65.25-1.23-.11-1.55-.92A10.68,10.68,0,0,1,154.53,50.63Z"/>
      </g>
    </g>
  </g>
</svg>
