<svg xmlns="http://www.w3.org/2000/svg" width="93" height="93" viewBox="0 0 93 93">
  <defs>
    <style>
      .a {
        fill: #ef3f4d;
      }

      .b {
        fill: #fff;
      }
    </style>
  </defs>
  <title>Asset 1</title>
  <g>
    <rect class="a" width="93" height="93" rx="17.59"/>
    <g>
      <path class="b" d="M7.36,26.23h11l10.32,27L39,26.23h10.9L33.68,66.76H23.59Z"/>
      <path class="b" d="M59.46,65.08a18.09,18.09,0,0,1-7.74-7.33A22.26,22.26,0,0,1,49,46.53a22.26,22.26,0,0,1,2.73-11.22,18.3,18.3,0,0,1,7.74-7.37,25.07,25.07,0,0,1,11.63-2.58,31.58,31.58,0,0,1,7.76.87A21.41,21.41,0,0,1,85.18,29V38.7a16.73,16.73,0,0,0-5.77-3,26.78,26.78,0,0,0-7.4-.93q-6,0-9.22,3.1t-3.24,8.62q0,5.51,3.27,8.64T72,58.3a26.06,26.06,0,0,0,7.48-1,19.15,19.15,0,0,0,6.15-3.13v9.69q-5.51,3.76-14.55,3.76A25.31,25.31,0,0,1,59.46,65.08Z"/>
    </g>
  </g>
</svg>
