<svg xmlns="http://www.w3.org/2000/svg" width="15" height="15" viewBox="0 0 15 15">
  <defs>
    <style>
      .a {
        fill: #ef3f4d;
      }

      .b {
        fill: #fff;
      }
    </style>
  </defs>
  <title>Asset 4</title>
  <g>
    <circle class="a" cx="7.5" cy="7.5" r="7.5"/>
    <path class="b" d="M5.19,7A6.45,6.45,0,0,0,8,9.81l1-.94a.41.41,0,0,1,.43-.11A5,5,0,0,0,10.94,9a.43.43,0,0,1,.43.43v1.5a.43.43,0,0,1-.43.43A7.31,7.31,0,0,1,3.63,4.06a.43.43,0,0,1,.43-.43H5.57A.43.43,0,0,1,6,4.06,4.91,4.91,0,0,0,6.24,5.6.41.41,0,0,1,6.13,6Z"/>
  </g>
</svg>
