<svg xmlns="http://www.w3.org/2000/svg" width="359.38" height="228.93" viewBox="0 0 359.38 228.93">
  <defs>
    <style>
      .a {
        fill: #355368;
      }

      .b {
        fill: #14b8ec;
      }

      .c {
        fill: #30677f;
      }

      .d {
        font-size: 17.56px;
        font-family: SukhumvitSet-Bold, Sukhumvit Set;
        font-weight: 700;
      }

      .d, .e, .i, .l {
        fill: #fff;
      }

      .e {
        font-size: 13.17px;
        font-family: SukhumvitSet-Light, Sukhumvit Set;
        font-weight: 300;
      }

      .f {
        letter-spacing: -0.02em;
      }

      .g, .h, .m, .n {
        fill: none;
      }

      .g, .h {
        stroke: #fff;
        stroke-linecap: round;
        stroke-width: 1.89px;
      }

      .g, .l, .n {
        stroke-miterlimit: 10;
      }

      .h {
        stroke-linejoin: round;
      }

      .i {
        opacity: 0.1;
      }

      .j {
        fill: #d6ab8b;
      }

      .k {
        fill: #fbcfaa;
      }

      .l {
        fill-opacity: 0.23;
      }

      .l, .m, .n {
        stroke: #282828;
      }

      .m {
        stroke-linejoin: bevel;
      }

      .m, .n {
        stroke-width: 1.25px;
      }

      .o {
        fill: #282828;
      }
    </style>
  </defs>
  <title>Asset 1</title>
  <g>
    <g>
      <rect class="a" x="198.15" y="22.2" width="95.76" height="201.06" rx="15.51" transform="translate(516.67 171.19) rotate(163.64)"/>
      <rect class="b" x="204.09" y="48.41" width="82.54" height="146.86" transform="translate(515.1 169.63) rotate(163.64)"/>
      <rect class="c" x="208.46" y="38.71" width="26.98" height="3.94" rx="1.85" transform="translate(446.37 17.21) rotate(163.64)"/>
      <rect class="c" x="261.21" y="198.31" width="18.33" height="14.66" rx="5.1" transform="translate(587.72 326.8) rotate(163.64)"/>
      <g>
        <text class="d" transform="translate(218.82 119.48) rotate(-16.36)">SHELF</text>
        <text class="e" transform="translate(238.15 125.84) rotate(-16.36)">OF</text>
        <text class="d" transform="translate(233.35 142.05) rotate(-16.36)"><tspan class="f">Y</tspan><tspan x="10.1" y="0">OU</tspan></text>
        <line class="g" x1="223.38" y1="151.83" x2="280.06" y2="135.19"/>
        <g>
          <polyline class="h" points="227.84 144.19 222.64 149.3 251.32 140.88"/>
          <polyline class="h" points="272.19 131.18 279.32 132.67 250.64 141.09"/>
        </g>
      </g>
      <path class="i" d="M254.83,15.38a9.23,9.23,0,0,1,11.43,6.24L308,163.85l-119.46-129Z"/>
      <rect class="j" x="176.39" y="107.71" width="37.27" height="20.92" rx="9.84" transform="translate(415.45 176.63) rotate(163.64)"/>
      <rect class="j" x="183.71" y="132.62" width="37.27" height="20.92" rx="9.84" transform="translate(436.79 223.37) rotate(163.64)"/>
      <rect class="j" x="191.02" y="157.53" width="37.27" height="20.92" rx="9.84" transform="translate(458.13 270.12) rotate(163.64)"/>
      <rect class="j" x="198.33" y="182.43" width="37.27" height="20.92" rx="9.84" transform="translate(479.47 316.86) rotate(163.64)"/>
      <rect class="k" x="175.89" y="106" width="37.27" height="20.92" rx="9.84" transform="translate(413.98 173.42) rotate(163.64)"/>
      <rect class="k" x="183.2" y="130.91" width="37.27" height="20.92" rx="9.84" transform="translate(435.33 220.16) rotate(163.64)"/>
      <rect class="k" x="190.51" y="155.82" width="37.27" height="20.92" rx="9.84" transform="translate(456.67 266.91) rotate(163.64)"/>
      <rect class="k" x="197.83" y="180.72" width="37.27" height="20.92" rx="9.84" transform="translate(478.01 313.65) rotate(163.64)"/>
      <path class="j" d="M229.34,62.12c2.24-8.82,12.31-7,12.31-7S304.36,67,320.74,72.42s24.81,10.52,34.48,36.26c19.88,55-37.57,68.31-43,69.44L287.31,93.35l-16.86-5.74-33.17-11.8S228.51,72.65,229.34,62.12Z"/>
      <path class="k" d="M228.17,58.14c2.24-8.83,12.31-7,12.31-7S303.19,63,319.57,68.43,344.38,79,354,104.69c19.89,55-37.56,68.31-43,69.44L286.14,89.36l-16.86-5.74-33.17-11.8S227.34,68.66,228.17,58.14Z"/>
    </g>
    <g>
      <polygon class="l" points="25.32 82.42 25.82 84.57 66.46 114.22 146.07 74.61 146.43 72.62 101.66 57.29 25.32 82.42"/>
      <polygon class="l" points="45.9 156.42 46.28 158.23 84.78 199.9 148.72 143.44 148.83 142.33 108.39 118.24 45.9 156.42"/>
      <polygon class="m" points="5.05 7.3 56.59 198.3 112.42 154.69 95.39 0.62 5.05 7.3"/>
      <polyline class="m" points="25.53 82.42 66.39 111.7 66.39 114.31 25.87 84.47"/>
      <polyline class="m" points="66.19 111.68 146.48 72.62 146.07 74.64 66.19 114.29"/>
      <polyline class="m" points="146.67 72.7 101.82 57.29 25.34 82.49"/>
      <polyline class="m" points="56.59 198.3 13.23 142.11 11.56 135.46 48.36 182.18 0.6 9.29 5.05 7.3"/>
      <polygon class="m" points="61.88 81 63.07 85.85 77.29 94.3 77.29 88.95 61.88 81"/>
      <polyline class="m" points="61.88 81 61.88 78.79 69.26 82.49 69.26 84.81 76.37 81.8"/>
      <polygon class="n" points="75.09 79.54 75.09 81.09 83.8 85.93 102.08 78.22 102.08 76.43 83.8 83.96 75.09 79.54"/>
      <polyline class="n" points="74.96 79.49 93.65 72.89 102.24 76.39"/>
      <polygon class="n" points="70.24 72.25 70.24 76.7 89.96 87.11 89.96 82.49 70.24 72.25"/>
      <polyline class="n" points="70.15 72.19 73.97 71.07 93.47 81 93.47 85.71 90.09 87.28"/>
      <line class="m" x1="61.88" y1="78.79" x2="70.24" y2="75.98"/>
      <polyline class="m" points="78.28 73.19 79.86 72.89 85.79 75.66"/>
      <line class="m" x1="69.26" y1="82.49" x2="75.1" y2="80.57"/>
      <line class="n" x1="89.96" y1="82.49" x2="93.47" y2="81"/>
      <polyline class="n" points="77.29 88.95 83.8 85.93 83.8 83.96"/>
      <polyline class="m" points="77.29 94.3 94.99 86.45 95.07 81.18"/>
      <line class="m" x1="11.45" y1="135.59" x2="32.72" y2="125.55"/>
      <polygon class="m" points="45.79 156.3 84.77 198.3 84.77 199.97 46.27 158.21 45.79 156.3"/>
      <polyline class="m" points="84.77 198.3 148.9 142.24 148.66 143.53 84.77 199.97"/>
      <polyline class="m" points="148.9 142.24 108.42 118.24 45.82 156.42"/>
      <polygon class="m" points="74.38 146.25 75.17 150.98 88.43 162.75 88.43 158.85 74.38 146.25"/>
      <polygon class="m" points="88.08 152.19 88.08 153.82 95.95 160.43 95.95 158.9 88.08 152.19"/>
      <polyline class="m" points="95.95 158.9 111 147.74 111 148.83 95.95 160.43"/>
      <polyline class="m" points="111 147.74 103 141.74 88.08 152.19"/>
      <polygon class="m" points="100.91 154.5 100.91 157.74 103.91 155.28 103.91 152.19 100.91 154.5"/>
      <polyline class="m" points="100.91 154.5 81.95 139.97 81.95 143.11 100.91 157.74"/>
      <polyline class="m" points="103.91 152.19 84.95 137.94 81.92 140.12"/>
      <polyline class="m" points="81.95 141.52 74.29 145.92 74.47 146.8"/>
      <polyline class="m" points="87.82 147.63 81.95 151.73 81.95 153.04 88.61 148.25"/>
      <line class="m" x1="74.75" y1="145.65" x2="81.95" y2="151.73"/>
      <polyline class="m" points="92.91 143.92 96.39 141.74 96.39 143.03 93.98 144.73"/>
      <polyline class="m" points="86.02 138.74 89.58 136.47 96.44 141.88"/>
      <line class="m" x1="88.43" y1="158.85" x2="95.45" y2="153.53"/>
      <line class="m" x1="88.43" y1="162.75" x2="97.77" y2="155.32"/>
      <polyline class="m" points="100.46 149.59 103.35 147.74 103.35 151.72"/>
      <line class="m" x1="103.44" y1="147.84" x2="96.39" y2="143.03"/>
    </g>
    <g>
      <path class="o" d="M152.22,24.77c.6,1,.23,1.68-.63,2.31a20.23,20.23,0,0,0-7.7,21.35c.09.35.19.71.25,1.07a1.17,1.17,0,0,1-1,1.51,1.23,1.23,0,0,1-1.52-1,22.47,22.47,0,0,1-.94-5.46,30.35,30.35,0,0,1,.38-5.71l1.31-4.24c.32-.63.62-1.26,1-1.88a20.94,20.94,0,0,1,7.71-8.32Z"/>
      <path class="o" d="M164.18,38.9a4.47,4.47,0,0,1,3,5.6,4.56,4.56,0,0,1-5.7,3,4.66,4.66,0,0,1-2.92-5.69A4.49,4.49,0,0,1,164.18,38.9Z"/>
      <path class="o" d="M149.21,39.25A13.31,13.31,0,0,0,149,47a8,8,0,0,1,.24,1.28,1.15,1.15,0,0,1-.92,1.27A1.06,1.06,0,0,1,147,49a5.64,5.64,0,0,1-.48-1.32,17.52,17.52,0,0,1,6.92-18.57,3.41,3.41,0,0,1,.6-.36,1.24,1.24,0,0,1,1.54.41,1.17,1.17,0,0,1-.1,1.57,3.6,3.6,0,0,1-.7.58A14.5,14.5,0,0,0,149.21,39.25Z"/>
      <path class="o" d="M152.49,40.08a11.85,11.85,0,0,1,4.94-6.39c.94-.58,1.71-.51,2.15.14s.2,1.39-.72,2a8.9,8.9,0,0,0-4.09,9.2,14.18,14.18,0,0,0,.47,1.75,1.27,1.27,0,0,1-.76,1.73c-.71.27-1.34-.12-1.69-1A11.72,11.72,0,0,1,152.49,40.08Z"/>
    </g>
  </g>
</svg>
