<svg xmlns="http://www.w3.org/2000/svg" width="15" height="15" viewBox="0 0 15 15">
  <defs>
    <style>
      .a {
        fill: #ef3f4d;
      }

      .b {
        fill: #fff;
      }
    </style>
  </defs>
  <title>Asset 1</title>
  <g>
    <circle class="a" cx="7.5" cy="7.5" r="7.5"/>
    <path class="b" d="M7.5,2.89A4.72,4.72,0,0,0,6,12.1c.24,0,.33-.1.33-.23s0-.41,0-.8c-1.34.28-1.62-.63-1.62-.63a1.3,1.3,0,0,0-.53-.7c-.44-.29,0-.28,0-.28a1,1,0,0,1,.74.48,1,1,0,0,0,1.4.4,1,1,0,0,1,.3-.63A2.12,2.12,0,0,1,4.43,7.37a1.8,1.8,0,0,1,.5-1.27A1.61,1.61,0,0,1,5,4.85s.4-.12,1.32.49a4.4,4.4,0,0,1,1.2-.16,4.47,4.47,0,0,1,1.21.16C9.61,4.73,10,4.85,10,4.85a1.68,1.68,0,0,1,.05,1.25,1.79,1.79,0,0,1,.49,1.27A2.1,2.1,0,0,1,8.36,9.7a1.11,1.11,0,0,1,.32.88v1.29c0,.12.08.27.33.22a4.72,4.72,0,0,0,3.3-4.47A4.77,4.77,0,0,0,7.5,2.89Z"/>
  </g>
</svg>
